HIERARCHY
ROOT Hips
{
	OFFSET 0.00000 0.00000 0.00000
	CHANNELS 6 Xposition Yposition Zposition Zrotation Yrotation Xrotation 
	JOINT LHipJoint
	{
		OFFSET 0 0 0
		CHANNELS 3 Zrotation Yrotation Xrotation
		JOINT LeftHip
		{
			OFFSET 1.84395 -1.68683 0.74144
			CHANNELS 3 Zrotation Yrotation Xrotation
			JOINT LeftKnee
			{
				OFFSET 2.27037 -6.23779 0.00000
				CHANNELS 3 Zrotation Yrotation Xrotation
				JOINT LeftAnkle
				{
					OFFSET 2.56918 -7.05877 0.00000
					CHANNELS 3 Zrotation Yrotation Xrotation
					JOINT LeftToe
					{
						OFFSET 0.22276 -0.61202 1.71784
						CHANNELS 3 Zrotation Yrotation Xrotation
						End Site
						{
							OFFSET 0.00000 -0.00000 0.91613
						}
					}
				}
			}
		}
	}
	JOINT RHipJoint
	{
		OFFSET 0 0 0
		CHANNELS 3 Zrotation Yrotation Xrotation
		JOINT RightHip
		{
			OFFSET -1.76833 -1.68684 0.74144
			CHANNELS 3 Zrotation Yrotation Xrotation
			JOINT RightKnee
			{
				OFFSET -2.49360 -6.85110 0.00000
				CHANNELS 3 Zrotation Yrotation Xrotation
				JOINT RightAnkle
				{
					OFFSET -2.55538 -7.02085 0.00000
					CHANNELS 3 Zrotation Yrotation Xrotation
					JOINT RightToe
					{
						OFFSET -0.21516 -0.59115 1.68050
						CHANNELS 3 Zrotation Yrotation Xrotation
						End Site
						{
							OFFSET -0.00000 -0.00000 0.89604
						}
					}
				}
			}
		}
	}
	JOINT lowerback
	{
		OFFSET 0 0 0
		CHANNELS 3 Zrotation Yrotation Xrotation
		JOINT Chest
		{
			OFFSET 0.06382 1.72312 -0.19613
			CHANNELS 3 Zrotation Yrotation Xrotation
			JOINT Chest2
			{
				OFFSET -0.00055 1.73507 0.23859
				CHANNELS 3 Zrotation Yrotation Xrotation
				JOINT lowerneck
				{
					OFFSET 0 0 0
					CHANNELS 3 Zrotation Yrotation Xrotation
					JOINT Neck
					{
						OFFSET 0.03638 1.65562 0.09633
						CHANNELS 3 Zrotation Yrotation Xrotation
						JOINT Head
						{
							OFFSET 0.06388 1.62807 -0.32386
							CHANNELS 3 Zrotation Yrotation Xrotation
							End Site
							{
								OFFSET 0.00995 1.67644 -0.12021
							}
						}
					}
				}
				JOINT LeftCollar
				{
					OFFSET 0 0 0
					CHANNELS 3 Zrotation Yrotation Xrotation
					JOINT LeftShoulder
					{
						OFFSET 3.09648 1.42991 0.28122
CHANNELS 3 Zrotation Xrotation Yrotation
						JOINT LeftElbow
						{
OFFSET 0 -5.118780 -0.000000
CHANNELS 3 Zrotation Xrotation Yrotation
							JOINT LeftWrist
							{
OFFSET 0 -3.599710 0.000000
CHANNELS 3 Zrotation Xrotation Yrotation
								JOINT lhand
								{
									OFFSET 0 0 0
CHANNELS 3 Zrotation Xrotation Yrotation
									JOINT LFingers
									{
OFFSET 0 -0.628770 0.000000
CHANNELS 3 Zrotation Xrotation Yrotation
										End Site
										{
OFFSET 0 -0.506930 0.000000
										}
									}
								}
								JOINT LThumb
								{
OFFSET 0 0.000000 0.000000
CHANNELS 3 Zrotation Xrotation Yrotation
									End Site
									{
OFFSET 0 -0.514670 0.514670
									}
								}
							}
						}
					}
				}
				JOINT RightCollar
				{
					OFFSET 0 0 0
					CHANNELS 3 Zrotation Yrotation Xrotation
					JOINT RightShoulder
					{
						OFFSET -3.33565 1.14597 0.05047
CHANNELS 3 Zrotation Xrotation Yrotation
						JOINT RightElbow
						{
OFFSET 0 -5.490200 0.000000
CHANNELS 3 Zrotation Xrotation Yrotation
							JOINT RightWrist
							{
OFFSET 0 -3.206590 -0.000000
CHANNELS 3 Zrotation Xrotation Yrotation
								JOINT rhand
								{
									OFFSET 0 0 0
CHANNELS 3 Zrotation Xrotation Yrotation
									JOINT RFingers
									{
OFFSET 0 -0.691880 0.000000
CHANNELS 3 Zrotation Xrotation Yrotation
										End Site
										{
OFFSET 0 -0.557810 0.000000
										}
									}
								}
								JOINT RThumb
								{
OFFSET 0 0.000000 0.000000
CHANNELS 3 Zrotation Xrotation Yrotation
									End Site
									{
OFFSET 0 -0.566330 0.566330
									}
								}
							}
						}
					}
				}
			}
		}
	}
}
MOTION
Frames: 11
Frame Time: 0.008333333333333333
1.102959 17.321576 9.423605 -8.209804 -2.358114 3.223004 0.000000 0.000000 0.000000 -14.629262 -20.382542 16.528685 0.010490 0.661408 1.817668 -1.751726 26.911696 -26.093389 0.113804 -2.172640 -5.983079 0.000000 0.000000 0.000000 27.011304 18.192572 6.016340 -0.569528 -4.832889 13.432690 -0.798157 -8.990119 -22.428536 -0.198662 2.870033 -7.917067 4.364329 1.546234 -2.681455 0.914807 2.073242 -4.902872 -1.503125 0.900936 -3.436936 -0.040934 -2.775344 -8.641729 6.191246 -3.759868 -1.778867 1.824058 -1.766569 1.039998 0.000000 0.000000 0.000000 15.701213 19.733915 -74.168585 134.560509 -50.982011 97.420235 -10.489828 -22.114097 16.898441 0.000000 0.000000 0.000000 -7.125000 0.000000 0.000000 -24.782308 13.747899 -20.212380 0.000000 0.000000 0.000000 -12.832426 16.227663 74.596362 -136.736517 -49.888740 -99.097941 39.969599 -36.707475 23.077462 0.000000 0.000000 0.000000 7.125000 0.000000 0.000000 58.069980 44.302911 1.609859
1.117103 17.353724 9.425398 -8.028167 -2.616629 3.836205 0.000000 0.000000 0.000000 -15.008383 -21.047941 16.461270 0.006988 0.539247 1.481799 -1.851992 27.529362 -26.620884 0.078642 -1.806796 -4.972063 0.000000 0.000000 0.000000 26.681169 18.811514 5.870670 -0.524776 -4.642257 12.890997 -0.743849 -9.269732 -22.177628 -0.180441 2.735983 -7.544643 4.741872 1.385013 -2.777804 0.712179 1.851921 -5.105282 -1.922926 0.766210 -3.591779 -0.150743 -3.010937 -8.529414 6.825334 -4.151078 -0.526616 2.034253 -1.923055 1.460740 0.000000 0.000000 0.000000 16.133752 19.972915 -74.653248 134.589162 -50.968123 97.442611 -10.409223 -21.322556 17.233225 0.000000 0.000000 0.000000 -7.125000 0.000000 0.000000 -24.689047 13.440636 -20.298109 0.000000 0.000000 0.000000 -13.616399 16.247078 75.118159 -137.076678 -49.709498 -99.357790 40.908528 -35.964203 22.090817 0.000000 0.000000 0.000000 7.125000 0.000000 0.000000 57.539374 43.363114 3.774646
1.120776 17.393605 9.433418 -8.054043 -2.354409 4.650989 0.000000 0.000000 0.000000 -15.208865 -22.441378 16.622571 0.002620 0.313633 0.861774 -2.073988 28.536248 -27.034409 0.053166 -1.482582 -4.077819 0.000000 0.000000 0.000000 26.665285 19.450603 5.814128 -0.455784 -4.329088 12.004732 -0.676744 -9.942896 -22.168691 -0.153724 2.523787 -6.955766 5.125846 1.109269 -2.875585 0.614930 1.490897 -5.583519 -2.240359 0.549941 -4.054980 -0.617979 -3.273532 -8.264122 7.658804 -4.553186 0.584115 2.379377 -2.084009 1.835755 0.000000 0.000000 0.000000 16.823121 21.044188 -75.455258 134.956555 -50.789689 97.727561 -8.600393 -20.141768 17.869982 0.000000 0.000000 0.000000 -7.125000 0.000000 0.000000 -23.534438 12.871647 -19.455259 0.000000 0.000000 0.000000 -14.432950 16.736915 75.785216 -137.557010 -49.452235 -99.723407 40.390102 -36.346838 22.262917 0.000000 0.000000 0.000000 7.125000 0.000000 0.000000 57.494754 43.600009 3.206309
1.117374 17.431272 9.446925 -8.347456 -2.005197 5.552261 0.000000 0.000000 0.000000 -15.145382 -24.109170 17.014793 0.000054 0.032139 0.088450 -2.332189 29.737278 -27.725111 0.028453 -1.088121 -2.991396 0.000000 0.000000 0.000000 26.982706 20.209662 5.803531 -0.383154 -3.974689 11.005506 -0.596769 -10.707721 -22.152668 -0.111727 2.154797 -5.933741 5.470794 0.842405 -2.932945 0.754406 1.154589 -6.102777 -2.289931 0.348033 -4.595868 -0.783080 -3.475373 -8.249776 7.956643 -4.888861 1.560630 2.495228 -2.219896 2.188520 0.000000 0.000000 0.000000 17.385409 22.113952 -76.171334 134.973280 -50.781558 97.740546 -5.597168 -19.737327 19.336596 0.000000 0.000000 0.000000 -7.125000 0.000000 0.000000 -21.575695 11.496974 -18.217222 0.000000 0.000000 0.000000 -15.212776 17.203965 76.168429 -137.984584 -49.219593 -100.047824 39.488105 -35.726207 22.356071 0.000000 0.000000 0.000000 7.125000 0.000000 0.000000 57.208734 43.847028 2.595078
1.113711 17.456622 9.449451 -8.320413 -1.986877 6.727212 0.000000 0.000000 0.000000 -15.253011 -25.711980 16.812275 0.000347 -0.113674 -0.312256 -2.574048 30.896333 -28.616474 0.011774 -0.671146 -1.844513 0.000000 0.000000 0.000000 26.634177 21.018300 5.076372 -0.340091 -3.746768 10.365353 -0.546588 -11.049060 -22.019880 -0.088508 1.917879 -5.278739 5.202790 0.655965 -2.900936 1.032069 0.939414 -6.675266 -1.851987 0.235416 -5.244032 -1.473727 -3.607724 -8.248491 8.673571 -5.057828 1.902582 2.859172 -2.281509 2.364971 0.000000 0.000000 0.000000 17.481254 23.058860 -76.218461 134.640087 -50.943361 97.482049 -2.779560 -20.943243 20.669705 0.000000 0.000000 0.000000 -7.125000 0.000000 0.000000 -19.764858 10.179943 -17.033057 0.000000 0.000000 0.000000 -15.714832 17.421175 75.884169 -138.072685 -49.171215 -100.114454 39.413223 -33.440163 21.817888 0.000000 0.000000 0.000000 7.125000 0.000000 0.000000 56.694763 43.446097 3.456163
1.114036 17.471177 9.448474 -8.313576 -2.086561 7.945982 0.000000 0.000000 0.000000 -15.354956 -27.442276 16.628695 0.001534 -0.251742 -0.691776 -2.786058 32.063962 -29.895265 0.000482 0.080709 0.221676 0.000000 0.000000 0.000000 26.133512 21.600765 4.029406 -0.308840 -3.572795 9.877663 -0.493734 -11.153581 -21.621236 -0.092379 1.960643 -5.396862 4.892762 0.577543 -2.839479 1.349540 0.872764 -7.246397 -1.348925 0.204289 -5.899421 -2.025788 -3.753912 -7.620830 9.427905 -5.181918 1.255628 3.220146 -2.360584 2.092948 0.000000 0.000000 0.000000 17.269683 23.904565 -75.833172 133.981715 -51.257596 96.969659 -2.119453 -22.640391 20.975703 0.000000 0.000000 0.000000 -7.125000 0.000000 0.000000 -19.344044 9.870144 -16.752232 0.000000 0.000000 0.000000 -15.678560 17.863162 75.099605 -137.816482 -49.311510 -99.920340 39.779642 -31.792781 21.268478 0.000000 0.000000 0.000000 7.125000 0.000000 0.000000 56.349371 42.942576 4.569118
1.116037 17.470711 9.444795 -8.483986 -2.523771 9.490235 0.000000 0.000000 0.000000 -15.086419 -29.185918 16.020171 0.002682 -0.333280 -0.915685 -2.999797 33.345248 -31.562320 0.018426 0.848185 2.331275 0.000000 0.000000 0.000000 25.543525 22.221475 2.200784 -0.309798 -3.578323 9.893190 -0.484046 -10.728416 -21.087653 -0.102644 2.066358 -5.689025 4.973451 0.816141 -3.106691 1.472749 1.207395 -7.906388 -1.269541 0.349006 -6.439541 -2.874844 -4.077803 -6.913323 10.716353 -5.522627 0.390563 3.825408 -2.548652 1.788964 0.000000 0.000000 0.000000 17.167635 24.610714 -75.549961 133.085334 -51.672056 96.268343 -3.648953 -24.332952 19.590105 0.000000 0.000000 0.000000 -7.125000 0.000000 0.000000 -20.376702 11.221494 -17.169747 0.000000 0.000000 0.000000 -14.891903 18.948208 74.135565 -136.915219 -49.793647 -99.234088 43.110390 -32.749267 20.611896 0.000000 0.000000 0.000000 7.125000 0.000000 0.000000 56.902601 41.699015 7.709665
1.105387 17.466731 9.452144 -8.764406 -2.836817 10.614721 0.000000 0.000000 0.000000 -14.710501 -30.562326 15.782178 0.004682 -0.441448 -1.212875 -3.230257 34.522462 -32.922338 0.040547 1.298979 3.572001 0.000000 0.000000 0.000000 25.387338 22.760170 0.988759 -0.310828 -3.584044 9.909412 -0.476080 -10.490296 -20.763731 -0.103103 2.069896 -5.698825 5.212384 1.130704 -3.340916 1.424958 1.628115 -8.280753 -1.458615 0.531164 -6.681846 -3.344535 -4.438463 -6.732373 11.882192 -5.975015 -0.016577 4.314641 -2.770007 1.728631 0.000000 0.000000 0.000000 17.259513 24.964288 -75.527396 132.156504 -52.087481 95.537704 -4.607762 -25.234004 18.327042 0.000000 0.000000 0.000000 -7.125000 0.000000 0.000000 -21.072088 12.427493 -17.283740 0.000000 0.000000 0.000000 -13.552741 20.283780 72.949868 -135.787534 -50.376401 -98.369470 45.277731 -34.542801 20.452943 0.000000 0.000000 0.000000 7.125000 0.000000 0.000000 57.267053 41.030026 9.587540
1.086000 17.458721 9.473052 -8.953276 -2.871927 10.883093 0.000000 0.000000 0.000000 -14.544733 -31.018549 16.054561 0.006769 -0.532158 -1.462355 -3.330349 34.983677 -33.417735 0.048908 1.425170 3.919584 0.000000 0.000000 0.000000 25.630159 22.958803 0.974672 -0.298885 -3.515369 9.717095 -0.464246 -10.576678 -20.733459 -0.090873 1.944306 -5.351714 5.286969 1.365786 -3.405226 1.337208 1.927716 -8.106623 -1.594993 0.681716 -6.432435 -3.722545 -5.185180 -6.046920 13.037183 -6.769715 -2.077913 4.436642 -3.230891 1.020797 0.000000 0.000000 0.000000 17.112606 24.823993 -75.403317 131.390301 -52.418868 94.931885 -5.661383 -24.872758 18.128981 0.000000 0.000000 0.000000 -7.125000 0.000000 0.000000 -21.734059 12.626715 -17.820845 0.000000 0.000000 0.000000 -12.083405 21.405947 71.688388 -135.115014 -50.711871 -97.850239 44.888692 -36.348350 21.338858 0.000000 0.000000 0.000000 7.125000 0.000000 0.000000 58.044411 41.880829 7.634020
1.067398 17.442054 9.497025 -9.110630 -2.918452 10.767607 0.000000 0.000000 0.000000 -14.472885 -30.872392 16.427269 0.008359 -0.589805 -1.620876 -3.362843 35.086698 -33.462688 0.045428 1.374952 3.781137 0.000000 0.000000 0.000000 25.968535 22.881998 1.250763 -0.295515 -3.495683 9.661848 -0.459012 -10.552689 -20.654312 -0.093525 1.972106 -5.428631 5.351201 1.539454 -3.496737 1.338098 2.134533 -7.657583 -1.626294 0.801967 -5.880745 -4.432020 -5.743328 -5.238950 14.437028 -7.253110 -4.358393 4.886103 -3.561058 0.315301 0.000000 0.000000 0.000000 16.572081 24.386605 -74.964782 130.942933 -52.607987 94.576877 -7.055952 -24.968555 18.007936 0.000000 0.000000 0.000000 -7.125000 0.000000 0.000000 -22.591482 12.748522 -18.591057 0.000000 0.000000 0.000000 -11.047873 22.093452 70.885100 -135.066764 -50.735686 -97.812964 42.915378 -36.692077 22.075757 0.000000 0.000000 0.000000 7.125000 0.000000 0.000000 58.183999 42.927736 4.993303
1.043895 17.426769 9.526740 -9.215948 -2.915759 10.432095 0.000000 0.000000 0.000000 -14.283586 -30.220855 16.568225 0.007980 -0.576453 -1.583937 -3.238766 34.665647 -33.227206 0.037023 1.240989 3.412168 0.000000 0.000000 0.000000 26.366748 22.727115 1.656348 -0.307043 -3.562262 9.848232 -0.472469 -10.514448 -20.751379 -0.086175 1.892576 -5.208913 5.307928 1.582671 -3.524438 1.411070 2.178654 -7.321041 -1.522319 0.843372 -5.504549 -5.074226 -5.817783 -4.707270 15.493312 -7.257804 -4.979403 5.338733 -3.597861 0.122832 0.000000 0.000000 0.000000 16.018028 24.219242 -74.409916 130.685544 -52.715215 94.372305 -8.187070 -25.567128 18.003235 0.000000 0.000000 0.000000 -7.125000 0.000000 0.000000 -23.271189 12.752688 -19.259300 0.000000 0.000000 0.000000 -10.571106 22.489564 70.476622 -135.237430 -50.651604 -97.944993 38.655349 -34.363726 22.185622 0.000000 0.000000 0.000000 7.125000 0.000000 0.000000 56.686420 43.872838 2.489905
